<?xml version="1.0" encoding="UTF-8"?><svg id="n" xmlns="http://www.w3.org/2000/svg" xmlns:xlink="http://www.w3.org/1999/xlink" viewBox="0 0 720 720"><defs><style>.t{fill:none;}.u{fill:#474747;}.v{fill:#009639;}.w{fill:#0e41aa;}.x{fill:#005c8d;}.y{fill:#ab2782;}.z{fill:#fff;}.aa{fill:#e4002b;}.ab{fill:#e88a2d;}.ac{fill:#0072b0;}.ad{fill:#222;}</style><symbol id="a" viewBox="0 0 282 282"><circle class="ad" cx="141" cy="141" r="141"/><polygon class="t" points="141 148.7781746 133.2218254 141 141 133.2218254 148.7781746 141 141 148.7781746"/><g id="b"><path class="z" d="M47.4504395,121.5506909h-6.5297852l-.902832,2.6245117h-3.2124023l4.8920898-14.9072266h4.9760742l4.8920898,14.9072266h-3.2124023l-.902832-2.6245117ZM44.1960449,112.2284253l-2.246582,6.3828125h4.472168l-2.2255859-6.3828125Z"/><path class="z" d="M64.2941895,118.0233472v1.5957031c0,3.5273438-1.8476562,4.8710938-4.7661133,4.8710938-1.1757812,0-2.2045898-.230957-3.0234375-.7558594v5.2700195h-3.1494141v-15.5371094h2.0786133l.5878906.8188477c.8608398-.7768555,2.0576172-1.1337891,3.5063477-1.1337891,2.918457,0,4.7661133,1.34375,4.7661133,4.8710938ZM61.1447754,118.1913159c0-1.4697266-.9238281-2.1835938-2.2885742-2.1835938-1.4277344,0-2.3515625.7558594-2.3515625,2.2675781v1.0917969c0,1.5117188.9658203,2.2675781,2.3515625,2.2675781,1.3647461,0,2.2885742-.7138672,2.2885742-2.1835938v-1.2597656Z"/><path class="z" d="M77.467041,118.0233472v1.5957031c0,3.5273438-1.8476562,4.8710938-4.7661133,4.8710938-1.1757812,0-2.2045898-.230957-3.0234375-.7558594v5.2700195h-3.1494141v-15.5371094h2.0786133l.5878906.8188477c.8608398-.7768555,2.0576172-1.1337891,3.5063477-1.1337891,2.918457,0,4.7661133,1.34375,4.7661133,4.8710938ZM74.317627,118.1913159c0-1.4697266-.9238281-2.1835938-2.2885742-2.1835938-1.4277344,0-2.3515625.7558594-2.3515625,2.2675781v1.0917969c0,1.5117188.9658203,2.2675781,2.3515625,2.2675781,1.3647461,0,2.2885742-.7138672,2.2885742-2.1835938v-1.2597656Z"/><path class="z" d="M82.8635254,108.0082105v16.1669922h-3.1494141v-16.1669922h3.1494141Z"/><path class="z" d="M85.4279785,109.2679761h3.1494141v3.0654297h-3.1494141v-3.0654297ZM85.4279785,113.4671948h3.1494141v10.7080078h-3.1494141v-10.7080078Z"/><path class="z" d="M90.7434082,119.5140698v-1.3857422c0-3.0444336,1.9526367-4.9760742,5.3330078-4.9760742,3.1074219,0,5.144043,1.8896484,5.144043,4.703125v.0629883h-3.1704102v-.0629883c0-1.1547852-.7558594-1.8686523-1.9526367-1.8686523-1.5117188,0-2.2045898.8188477-2.2045898,2.3095703v1.0498047c0,1.4907227.671875,2.3095703,2.1835938,2.3095703,1.1967773,0,1.9736328-.7138672,1.9736328-1.8686523v-.0629883h3.1704102v.0629883c0,2.8134766-2.0366211,4.703125-5.1230469,4.703125-3.3803711,0-5.3540039-1.9316406-5.3540039-4.9760742Z"/><path class="z" d="M113.9294434,113.4671948v10.7080078h-2.0786133l-.5668945-.8188477c-.8818359.7768555-2.0996094,1.1337891-3.5693359,1.1337891-2.8764648,0-4.7241211-1.3647461-4.7241211-4.8710938v-1.5957031c0-3.5063477,1.8476562-4.8710938,4.7241211-4.8710938,1.4697266,0,2.6875.3569336,3.5693359,1.1337891l.5668945-.8188477h2.0786133ZM110.7800293,119.3670972v-1.0917969c0-1.5117188-.9238281-2.2675781-2.3515625-2.2675781-1.3647461,0-2.2885742.7138672-2.2885742,2.1835938v1.2597656c0,1.4697266.9238281,2.1835938,2.2885742,2.1835938,1.3857422,0,2.3515625-.7558594,2.3515625-2.2675781Z"/><path class="z" d="M123.1970215,121.34073v2.8344727h-1.6376953c-2.8974609,0-4.5141602-1.5537109-4.5141602-4.3461914v-3.5273438h-1.4697266v-2.8344727h1.4697266v-3.0024414h3.1494141v3.0024414h2.7924805v2.8344727h-2.7924805v2.918457c0,1.3647461.6508789,2.1206055,1.8476562,2.1206055h1.1547852Z"/><path class="z" d="M125.2185059,109.2679761h3.1494141v3.0654297h-3.1494141v-3.0654297ZM125.2185059,113.4671948h3.1494141v10.7080078h-3.1494141v-10.7080078Z"/><path class="z" d="M130.5334473,119.5140698v-1.3857422c0-3.0444336,1.9526367-4.9760742,5.4169922-4.9760742s5.4379883,1.9316406,5.4379883,4.9760742v1.3857422c0,3.0444336-1.9526367,4.9760742-5.4169922,4.9760742s-5.4379883-1.9316406-5.4379883-4.9760742ZM138.2390137,119.3461011v-1.0498047c0-1.4907227-.671875-2.3095703-2.2675781-2.3095703s-2.2885742.8188477-2.2885742,2.3095703v1.0498047c0,1.4907227.671875,2.3095703,2.2675781,2.3095703s2.2885742-.8188477,2.2885742-2.3095703Z"/><path class="z" d="M154.2907715,118.4432691v5.7319336h-3.1494141v-5.7739258c0-1.6376953-1.0708008-2.3935547-2.1625977-2.3935547s-2.2675781.7558594-2.2675781,2.2675781v5.8999023h-3.1494141v-10.7080078h2.0786133l.6088867.8608398c.9238281-.7978516,2.1625977-1.1757812,3.5273438-1.1757812,2.6875,0,4.5141602,1.4487305,4.5141602,5.2910156Z"/><path class="z" d="M175.8776855,114.4540112v4.5351562c0,3.1704102-2.4985352,5.1860352-6.6347656,5.1860352h-6.71875v-14.9072266h6.6977539c4.1572266,0,6.6557617,2.015625,6.6557617,5.1860352ZM172.623291,114.7269605c0-1.5327148-1.1547852-2.5195312-3.1704102-2.5195312h-3.6743164v9.0283203h3.6533203c2.0366211,0,3.1914062-.9868164,3.1914062-2.5195312v-3.9892578Z"/><path class="z" d="M188.2473145,117.3304761v2.4145508h-7.3066406c.1259766,1.574707,1.0078125,2.2255859,2.2255859,2.2255859.8608398,0,1.9106445-.4829102,1.9106445-1.0498047v-.1469727h3.1494141c0,2.2675781-2.0996094,3.7163086-5.1020508,3.7163086-3.3803711,0-5.3540039-2.0366211-5.3540039-5.0810547v-1.2807617c0-3.0444336,1.9526367-4.9760742,5.3330078-4.9760742,2.9604492,0,5.144043,1.8896484,5.144043,4.1782227ZM185.013916,117.4354566c-.0419922-1.1757812-.5878906-1.7636719-1.8896484-1.7636719-1.2597656,0-1.9526367.6298828-2.1416016,1.7636719h4.03125Z"/><path class="z" d="M193.6325684,108.0082105v16.1669922h-3.1494141v-16.1669922h3.1494141Z"/><path class="z" d="M196.1975098,109.2679761h3.1494141v3.0654297h-3.1494141v-3.0654297ZM196.1975098,113.4671948h3.1494141v10.7080078h-3.1494141v-10.7080078Z"/><path class="z" d="M212.0085449,113.4671948l-3.359375,10.7080078h-4.2832031l-3.359375-10.7080078h3.2963867l2.3095703,7.4536133,2.0996094-7.4536133h3.2963867Z"/><path class="z" d="M223.411377,117.3304761v2.4145508h-7.3066406c.1259766,1.574707,1.0078125,2.2255859,2.2255859,2.2255859.8608398,0,1.9106445-.4829102,1.9106445-1.0498047v-.1469727h3.1494141c0,2.2675781-2.0996094,3.7163086-5.1020508,3.7163086-3.3803711,0-5.3540039-2.0366211-5.3540039-5.0810547v-1.2807617c0-3.0444336,1.9526367-4.9760742,5.3330078-4.9760742,2.9604492,0,5.144043,1.8896484,5.144043,4.1782227ZM220.1779785,117.4354566c-.0419922-1.1757812-.5878906-1.7636719-1.8896484-1.7636719-1.2597656,0-1.9526367.6298828-2.1416016,1.7636719h4.03125Z"/><path class="z" d="M232.3537598,113.2572339v2.7294922c-.4199219-.1259766-.8818359-.2099609-1.3227539-.2099609-1.1547852,0-2.246582.5668945-2.246582,2.3305664v6.0678711h-3.1494141v-10.7080078h2.0786133l.671875.9448242c.9238281-.7978516,2.1625977-1.1757812,3.4013672-1.1757812.1889648,0,.3779297,0,.5668945.0209961Z"/><path class="z" d="M244.5031738,113.4671948v11.5058594c0,2.2675781-1.5117188,4.3461914-5.2070312,4.3461914s-5.1230469-2.0786133-5.1230469-4.0942383h3.1494141c0,.7768555.8398438,1.2597656,1.9106445,1.2597656,1.112793,0,2.1206055-.5039062,2.1206055-1.6796875v-1.0288086c-.7558594.4829102-1.6586914.7138672-2.6665039.7138672-2.6455078,0-4.4931641-1.4487305-4.4931641-5.2910156v-5.7319336h3.1494141v5.7739258c0,1.6166992.7978516,2.3935547,2.015625,2.3935547.9868164,0,1.9946289-.7768555,1.9946289-2.2675781v-5.8999023h3.1494141Z"/><path class="z" d="M38.1525879,136.9544995v10.7080078h-2.0786133l-.5668945-.8188477c-.8818359.7768555-2.0996094,1.1337891-3.5693359,1.1337891-2.8764648,0-4.7241211-1.3647461-4.7241211-4.8710938v-1.5957031c0-3.5063477,1.8476562-4.8710938,4.7241211-4.8710938,1.4697266,0,2.6875.3569336,3.5693359,1.1337891l.5668945-.8188477h2.0786133ZM35.0031738,142.8544019v-1.0917969c0-1.5117188-.9238281-2.2675781-2.3515625-2.2675781-1.3647461,0-2.2885742.7138672-2.2885742,2.1835938v1.2597656c0,1.4697266.9238281,2.1835938,2.2885742,2.1835938,1.3857422,0,2.3515625-.7558594,2.3515625-2.2675781Z"/><path class="z" d="M51.470459,141.9305737v5.7319336h-3.1494141v-5.7739258c0-1.6376953-1.0708008-2.3935547-2.1625977-2.3935547s-2.2675781.7558594-2.2675781,2.2675781v5.8999023h-3.1494141v-10.7080078h2.0786133l.6088867.8608398c.9238281-.7978516,2.1625977-1.1757812,3.5273438-1.1757812,2.6875,0,4.5141602,1.4487305,4.5141602,5.2910156Z"/><path class="z" d="M64.5114746,131.4955151v16.1669922h-2.0786133l-.5878906-.8188477c-.8608398.7768555-2.0576172,1.1337891-3.5063477,1.1337891-2.918457,0-4.7661133-1.34375-4.7661133-4.8710938v-1.5957031c0-3.5273438,1.8476562-4.8710938,4.7661133-4.8710938,1.1757812,0,2.2045898.230957,3.0234375.7558594v-5.8999023h3.1494141ZM61.3620605,142.8544019v-1.0917969c0-1.5117188-.9238281-2.2675781-2.3515625-2.2675781-1.3647461,0-2.2885742.7138672-2.2885742,2.1835938v1.2597656c0,1.4697266.9238281,2.1835938,2.2885742,2.1835938,1.3857422,0,2.3515625-.7558594,2.3515625-2.2675781Z"/><path class="z" d="M72.3669434,142.875398v-.4829102h3.2543945v.5878906c0,1.1967773,1.7006836,2.0576172,3.6533203,2.0576172,1.4067383,0,3.0654297-.5039062,3.0654297-1.8476562,0-2.8974609-9.6162109-.4199219-9.6162109-6.1938477,0-2.3095703,1.6376953-4.5561523,6.1938477-4.5561523,4.4301758,0,6.3828125,2.0576172,6.3828125,4.8081055v.5249023h-3.2543945v-.5249023c0-1.0708008-1.3857422-1.8686523-3.1914062-1.8686523-1.574707,0-2.8554688.5668945-2.8554688,1.6166992,0,2.246582,9.6162109.5039062,9.6162109,6.1518555,0,2.6245117-2.1835938,4.8291016-6.4458008,4.8291016-4.2832031,0-6.8027344-2.1625977-6.8027344-5.1020508Z"/><path class="z" d="M97.8503418,140.8177808v2.4145508h-7.3066406c.1259766,1.574707,1.0078125,2.2255859,2.2255859,2.2255859.8608398,0,1.9106445-.4829102,1.9106445-1.0498047v-.1469727h3.1494141c0,2.2675781-2.0996094,3.7163086-5.1020508,3.7163086-3.3803711,0-5.3540039-2.0366211-5.3540039-5.0810547v-1.2807617c0-3.0444336,1.9526367-4.9760742,5.3330078-4.9760742,2.9604492,0,5.144043,1.8896484,5.144043,4.1782227ZM94.6169434,140.9227612c-.0419922-1.1757812-.5878906-1.7636719-1.8896484-1.7636719-1.2597656,0-1.9526367.6298828-2.1416016,1.7636719h4.03125Z"/><path class="z" d="M99.6584473,143.0013745v-1.3857422c0-3.0444336,1.9526367-4.9760742,5.3330078-4.9760742,3.1074219,0,5.144043,1.8896484,5.144043,4.703125v.0629883h-3.1704102v-.0629883c0-1.1547852-.7558594-1.8686523-1.9526367-1.8686523-1.5117188,0-2.2045898.8188477-2.2045898,2.3095703v1.0498047c0,1.4907227.671875,2.3095703,2.1835938,2.3095703,1.1967773,0,1.9736328-.7138672,1.9736328-1.8686523v-.0629883h3.1704102v.0629883c0,2.8134766-2.0366211,4.703125-5.1230469,4.703125-3.3803711,0-5.3540039-1.9316406-5.3540039-4.9760742Z"/><path class="z" d="M122.4367676,136.9544995v10.7080078h-2.0786133l-.5668945-.7978516c-.8188477.7558594-1.9316406,1.112793-3.1704102,1.112793-2.6455078,0-4.4931641-1.4487305-4.4931641-5.2910156v-5.7319336h3.1494141v5.7739258c0,1.6166992.7978516,2.3935547,2.015625,2.3935547.9868164,0,1.9946289-.7768555,1.9946289-2.2675781v-5.8999023h3.1494141Z"/><path class="z" d="M131.744873,136.7445386v2.7294922c-.4199219-.1259766-.8818359-.2099609-1.3227539-.2099609-1.1547852,0-2.246582.5668945-2.246582,2.3305664v6.0678711h-3.1494141v-10.7080078h2.0786133l.671875.9448242c.9238281-.7978516,2.1625977-1.1757812,3.4013672-1.1757812.1889648,0,.3779297,0,.5668945.0209961Z"/><path class="z" d="M133.6271973,132.7552808h3.1494141v3.0654297h-3.1494141v-3.0654297ZM133.6271973,136.9544995h3.1494141v10.7080078h-3.1494141v-10.7080078Z"/><path class="z" d="M146.0202637,144.8280347v2.8344727h-1.6376953c-2.8974609,0-4.5141602-1.5537109-4.5141602-4.3461914v-3.5273438h-1.4697266v-2.8344727h1.4697266v-3.0024414h3.1494141v3.0024414h2.7924805v2.8344727h-2.7924805v2.918457c0,1.3647461.6508789,2.1206055,1.8476562,2.1206055h1.1547852Z"/><path class="z" d="M158.0983887,136.9544995v11.5058594c0,2.2675781-1.5117188,4.3461914-5.2070312,4.3461914s-5.1230469-2.0786133-5.1230469-4.0942383h3.1494141c0,.7768555.8398438,1.2597656,1.9106445,1.2597656,1.112793,0,2.1206055-.5039062,2.1206055-1.6796875v-1.0288086c-.7558594.4829102-1.6586914.7138672-2.6665039.7138672-2.6455078,0-4.4931641-1.4487305-4.4931641-5.2910156v-5.7319336h3.1494141v5.7739258c0,1.6166992.7978516,2.3935547,2.015625,2.3935547.9868164,0,1.9946289-.7768555,1.9946289-2.2675781v-5.8999023h3.1494141Z"/><path class="z" d="M178.9929199,137.3114331v.9658203c0,2.7924805-2.015625,4.5561523-5.2070312,4.5561523h-4.0942383v4.8291016h-3.2543945v-14.9072266h7.3276367c3.1914062,0,5.2280273,1.7636719,5.2280273,4.5561523ZM175.7385254,137.1644605c0-.902832-.671875-1.4697266-1.7426758-1.4697266h-4.3041992v4.1992188h4.2832031c1.0708008,0,1.7636719-.5668945,1.7636719-1.4697266v-1.2597656Z"/><path class="z" d="M184.0974121,131.4955151v16.1669922h-3.1494141v-16.1669922h3.1494141Z"/><path class="z" d="M197.2507324,136.9544995v10.7080078h-2.0786133l-.5668945-.8188477c-.8818359.7768555-2.0996094,1.1337891-3.5693359,1.1337891-2.8764648,0-4.7241211-1.3647461-4.7241211-4.8710938v-1.5957031c0-3.5063477,1.8476562-4.8710938,4.7241211-4.8710938,1.4697266,0,2.6875.3569336,3.5693359,1.1337891l.5668945-.8188477h2.0786133ZM194.1013184,142.8544019v-1.0917969c0-1.5117188-.9238281-2.2675781-2.3515625-2.2675781-1.3647461,0-2.2885742.7138672-2.2885742,2.1835938v1.2597656c0,1.4697266.9238281,2.1835938,2.2885742,2.1835938,1.3857422,0,2.3515625-.7558594,2.3515625-2.2675781Z"/><path class="z" d="M206.5183105,144.8280347v2.8344727h-1.6376953c-2.8974609,0-4.5141602-1.5537109-4.5141602-4.3461914v-3.5273438h-1.4697266v-2.8344727h1.4697266v-3.0024414h3.1494141v3.0024414h2.7924805v2.8344727h-2.7924805v2.918457c0,1.3647461.6508789,2.1206055,1.8476562,2.1206055h1.1547852Z"/><path class="z" d="M212.1003418,136.4505933v.5039062h3.0024414v2.8344727h-3.0024414v7.8735352h-3.1494141v-7.8735352h-1.0498047v-2.8344727h1.0498047v-.4829102c0-2.7924805,1.8266602-4.9760742,4.7241211-4.9760742h1.6376953v2.8344727h-1.3647461c-1.1967773,0-1.8476562.7558594-1.8476562,2.1206055Z"/><path class="z" d="M216.5280762,143.0013745v-1.3857422c0-3.0444336,1.9526367-4.9760742,5.4169922-4.9760742s5.4379883,1.9316406,5.4379883,4.9760742v1.3857422c0,3.0444336-1.9526367,4.9760742-5.4169922,4.9760742s-5.4379883-1.9316406-5.4379883-4.9760742ZM224.2336426,142.8334058v-1.0498047c0-1.4907227-.671875-2.3095703-2.2675781-2.3095703s-2.2885742.8188477-2.2885742,2.3095703v1.0498047c0,1.4907227.671875,2.3095703,2.2675781,2.3095703s2.2885742-.8188477,2.2885742-2.3095703Z"/><path class="z" d="M236.2751465,136.7445386v2.7294922c-.4199219-.1259766-.8818359-.2099609-1.3227539-.2099609-1.1547852,0-2.246582.5668945-2.246582,2.3305664v6.0678711h-3.1494141v-10.7080078h2.0786133l.671875.9448242c.9238281-.7978516,2.1625977-1.1757812,3.4013672-1.1757812.1889648,0,.3779297,0,.5668945.0209961Z"/><path class="z" d="M254.786377,141.9305737v5.7319336h-3.1494141v-5.9838867c0-1.4697266-.8818359-2.1835938-1.7636719-2.1835938-.902832,0-1.8266602.7138672-1.8266602,2.4355469v5.7319336h-3.1494141v-5.9838867c0-1.4697266-.8818359-2.1835938-1.7636719-2.1835938-.902832,0-1.8266602.7558594-1.8266602,2.2675781v5.8999023h-3.1494141v-10.7080078h2.0786133l.5458984.7768555c.7978516-.7558594,1.8056641-1.0917969,2.8134766-1.0917969,1.5537109,0,2.7714844.4619141,3.5273438,1.5117188.8188477-1.0288086,2.0366211-1.5117188,3.2124023-1.5117188,2.7924805,0,4.4511719,1.4487305,4.4511719,5.2910156Z"/></g><use width="45.5" height="45.5000139" transform="translate(114.5533755 31.5533674) scale(1.162489)" xlink:href="#g"/><path class="u" d="M112.0545173,257.5545616l-1.4404297,4.5917969h-1.8369141l-1.4404297-4.5917969h1.4140625l.9902344,3.1962891.8994141-3.1962891h1.4140625Z"/><path class="u" d="M114.3621345,260.8856163h3.4833984v1.2607422h-5.0683594v-.6298828c0-2.2236328,3.7363281-2.6650391,3.7363281-3.7451172v-.1982422c0-.4414062-.4052734-.6933594-1.1435547-.6933594-.7021484,0-1.0986328.3242188-1.0986328.9003906v.2070312h-1.3945312v-.1445312c0-1.359375.9902344-2.2236328,2.546875-2.2236328,1.5214844,0,2.4853516.7382812,2.4853516,1.9003906v.296875c0,1.7373047-3.1152344,2.2773438-3.546875,3.0693359Z"/><path class="u" d="M118.9929939,260.8319053h1.3505859v1.3144531h-1.3505859v-1.3144531Z"/><path class="u" d="M121.3465095,260.0574913v-2.2148438c0-1.359375,1.0712891-2.2236328,2.8085938-2.2236328,1.7382812,0,2.8095703.8642578,2.8095703,2.2236328v2.2148438c0,1.359375-1.0712891,2.2236328-2.7998047,2.2236328-1.7382812,0-2.8183594-.8642578-2.8183594-2.2236328ZM125.5691658,259.9403038v-1.9804688c0-.6572266-.4951172-1.0800781-1.4042969-1.0800781-.9189453,0-1.4228516.4228516-1.4228516,1.0800781v1.9804688c0,.6572266.4951172,1.0810547,1.4130859,1.0810547.9189453,0,1.4140625-.4238281,1.4140625-1.0810547Z"/><path class="u" d="M133.6863533,255.4393272l-2.2509766,7.1572266h-1.359375l2.2509766-7.1572266h1.359375Z"/><path class="u" d="M140.8318611,260.8856163v1.2607422h-4.1865234v-1.2607422h1.3955078v-3.8710938h-1.3955078v-1.2597656h2.7910156v5.1308594h1.3955078Z"/><path class="u" d="M141.6209236,260.0574913v-2.2148438c0-1.359375,1.0712891-2.2236328,2.8085938-2.2236328,1.7382812,0,2.8095703.8642578,2.8095703,2.2236328v2.2148438c0,1.359375-1.0712891,2.2236328-2.7998047,2.2236328-1.7382812,0-2.8183594-.8642578-2.8183594-2.2236328ZM145.8435798,259.9403038v-1.9804688c0-.6572266-.4951172-1.0800781-1.4042969-1.0800781-.9189453,0-1.4228516.4228516-1.4228516,1.0800781v1.9804688c0,.6572266.4951172,1.0810547,1.4130859,1.0810547.9189453,0,1.4140625-.4238281,1.4140625-1.0810547Z"/><path class="u" d="M148.2576423,260.8319053h1.3505859v1.3144531h-1.3505859v-1.3144531Z"/><path class="u" d="M152.329908,260.8856163h3.4833984v1.2607422h-5.0683594v-.6298828c0-2.2236328,3.7363281-2.6650391,3.7363281-3.7451172v-.1982422c0-.4414062-.4052734-.6933594-1.1435547-.6933594-.7021484,0-1.0986328.3242188-1.0986328.9003906v.2070312h-1.3945312v-.1445312c0-1.359375.9902344-2.2236328,2.546875-2.2236328,1.5214844,0,2.4853516.7382812,2.4853516,1.9003906v.296875c0,1.7373047-3.1152344,2.2773438-3.546875,3.0693359Z"/><path class="u" d="M156.8347908,260.0574913v-2.2148438c0-1.359375,1.0712891-2.2236328,2.8085938-2.2236328,1.7382812,0,2.8095703.8642578,2.8095703,2.2236328v2.2148438c0,1.359375-1.0712891,2.2236328-2.7998047,2.2236328-1.7382812,0-2.8183594-.8642578-2.8183594-2.2236328ZM161.057447,259.9403038v-1.9804688c0-.6572266-.4951172-1.0800781-1.4042969-1.0800781-.9189453,0-1.4228516.4228516-1.4228516,1.0800781v1.9804688c0,.6572266.4951172,1.0810547,1.4130859,1.0810547.9189453,0,1.4140625-.4238281,1.4140625-1.0810547Z"/><path class="u" d="M164.986158,260.8856163h3.4833984v1.2607422h-5.0683594v-.6298828c0-2.2236328,3.7363281-2.6650391,3.7363281-3.7451172v-.1982422c0-.4414062-.4052734-.6933594-1.1435547-.6933594-.7021484,0-1.0986328.3242188-1.0986328.9003906v.2070312h-1.3945312v-.1445312c0-1.359375.9902344-2.2236328,2.546875-2.2236328,1.5214844,0,2.4853516.7382812,2.4853516,1.9003906v.296875c0,1.7373047-3.1152344,2.2773438-3.546875,3.0693359Z"/><path class="u" d="M174.2957283,259.9500694v.3779297c0,1.1972656-.9453125,1.953125-2.421875,1.953125-1.4853516,0-2.4306641-.7558594-2.4306641-1.953125v-.3779297h1.3955078v.4765625c0,.4052734.3691406.6308594,1.0351562.6308594.6572266,0,1.0263672-.2255859,1.0263672-.6308594v-.5761719c0-.3505859-.2607422-.5400391-.5761719-.5400391h-2.7099609v-3.5556641h4.4384766v1.2597656h-3.0429688v1.0712891h1.4042969c1.1523438,0,1.8818359.7207031,1.8818359,1.8642578Z"/><g id="c"><polyline class="x" points="96 223.103362 140.9740543 202.9136972 185.9481086 223.103362 140.9740543 247.9748009 96 223.103362"/><polyline class="ac" points="96.0518914 210.2411181 141.0259457 190.0514533 186 210.2411181 141.0259457 235.112557 96.0518914 210.2411181"/></g><g id="d"><g id="e"><g id="f"><path class="x" d="M154.7914536,216.1174853h-26.9316792c-5.8406608-.0064658-10.5738394-4.7396427-10.5803035-10.5803035v-26.9316792c.0064641-5.8406608,4.7396427-10.5738394,10.5803035-10.5803035h26.9316792c5.8406608.0064641,10.5738378,4.7396427,10.5803035,10.5803035v26.9316792c-.0064658,5.8406608-4.7396427,10.5738378-10.5803035,10.5803035Z"/></g><path class="z" d="M134.7639495,194.4478038c-.0556816-.1139853-.095163-.2351925-.1172987-.3601047-.030756-.1487169-.0526881-.2991208-.0656867-.4504262-.133302.1326845-.2768486.2546614-.4293107.3647986-.1637716.1172271-.338591.2181914-.5219769.3014565-.1954248.0892163-.3993937.1583865-.6087769.2064456-.2254335.0517305-.4560776.0773139-.6873683.0762445-.3640893.0064792-.7265141-.0506835-1.0709355-.1689107-.2971989-.1022395-.5725441-.2594089-.8117044-.4633287-.219234-.1920688-.394814-.4288409-.5149395-.6944046-.1220171-.2734054-.1840135-.56979-.181812-.8691792-.0084972-.372412.0753227-.7411393.2439806-1.0732801.163907-.3081773.4011891-.5712419.6908865-.7659575.3273464-.2171063.6920196-.3718035,1.0756248-.4562902.4615903-.1057342.9340627-.1565251,1.40758-.1513144h1.3852922v-.5864913c.0034946-.2083138-.0385395-.414878-.1231626-.6052599-.081529-.1769336-.2017921-.3332752-.3518939-.4574625-.163888-.132302-.3519207-.2314988-.5536479-.2920733-.2373269-.0713627-.4841354-.1061704-.7319418-.1032217-.2292011-.0028414-.4574759.0295993-.6768106.0961854-.181482.0552878-.3520975.1413898-.5043829.2545361-.132991.1001052-.2423183.2282547-.3202251.3753541-.0751549.1379422-.1154261.2921762-.1172987.4492517h-1.2785512c.0065463-.2781328.0780477-.5508804.2087914-.7964562.1457369-.2719489.3452816-.5114012.5864913-.70379.2776506-.2209992.5915979-.3920621.9278285-.5055552.3998747-.1336018.81946-.1986397,1.2410162-.1923686.3962794-.0030002.7910531.0491107,1.1729826.1548337.3407388.0928206.6596864.2522944.9383852.4691926.2640244.2091751.4766808.4759984.6216816.7800345.1577198.3419984.2351567.7155335.2263866,1.0920465v3.4579526c.0016422.2634137.0247891.5262524.069206.7858984.0380339.2481956.1025259.4916057.1923686.7260756v.1090879l-1.3207778-.0035193ZM132.5165144,193.4789222c.2349173.0019308.4688592-.0304718.6944068-.0961854.2053538-.0600331.402385-.1455445.5864913-.2545361.1681746-.098642.3220843-.2197978.4574625-.3601047.1210171-.125344.2226235-.2680695.3014565-.4234468v-1.5049378h-1.1800211c-.5955143-.0297805-1.1895206.0832293-1.7324944.3296083-.3948229.1915856-.6378348.5996801-.6181623,1.0380899-.0018704.1740497.0295836.3468488.0926662.5090745.0606573.1536166.1557644.2912634.2779963.4023335.1368884.1188715.296521.208665.4691926.2639215.2102177.0677249.4301855.1002237.6510057.0961832Z"/><path class="z" d="M144.5583546,190.8127319c.0042352.5022463-.0604918,1.0026982-.1923686,1.4873415-.1135669.4307448-.3043336.8373135-.5630311,1.199962-.2404278.3325033-.5543258.6050563-.9172719.7964562-.3856187.1984048-.8144641.2979574-1.2480525.2897264-.4103631.0079088-.8181019-.0670962-1.1987875-.2205204-.3398282-.1423876-.6438799-.3583082-.8902947-.6322371v3.5740768h-1.2726895v-10.2952687h1.1612525l.0621675.810531c.2402488-.3007674.5470144-.5416829.8961586-.70379.3844285-.1691903.8011478-.2524554,1.2210753-.2439806.4380898-.0088104.8718438.0881603,1.2644742.2826879.3640558.1854733.679455.4538649.9207912.7835515.2602255.3613218.4511354.767801.5630311,1.1987875.1325928.4972929.1973018,1.0102356.1923686,1.5248765l.0011768.1477996ZM143.2868419,190.6637622c.0024118-.3483075-.0369689-.695644-.1172987-1.0345706-.0720473-.308184-.1979238-.6012328-.3718348-.8656622-.1621406-.2455243-.3799718-.4492874-.6357563-.5947021-.2821487-.1533302-.5997942-.2294024-.9207912-.2205204-.3636038-.0123386-.7222431.087149-1.0275321.2850348-.2750744.1888382-.5020583.4395239-.6627358.7319418v3.5811153c.1598497.288073.3857776.534103.6592165.7178648.3121597.1965322.6765466.2938654,1.0451284.2791709.3191378.008363.634678-.0690046.9137527-.2240397.2554847-.1470904.4722219-.35297.6322371-.6005661.171629-.2677741.2961966-.5629282.3683156-.8726984.0800546-.340166.1194308-.6886369.1172987-1.0380899v-.1442781Z"/><path class="z" d="M152.9932701,190.8127319c.0036468.5022127-.061069,1.0025841-.1923709,1.4873415-.1144596.4306307-.305582.8371122-.5642034,1.199962-.2401459.3327628-.5541088.605374-.9172741.7964562-.3852518.1982616-.8136833.297812-1.2468802.2897264-.4107569.0080677-.8189118-.0669396-1.199962-.2205204-.3398282-.1423876-.6438799-.3583082-.8902947-.6322371v3.5740768h-1.2715082v-10.2952687h1.1624248l.0609951.810531c.2404323-.3010627.5476498-.5420207.897331-.70379.3840124-.1692038.8003535-.2524733,1.219903-.2439806.4381055-.0089491.8718885.0880283,1.2644742.2826879.3642527.185178.6797146.4536233.9207912.7835515.2601472.3615232.4514129.7679106.5642034,1.1987875.1320312.4974003.1967336,1.0102692.1923709,1.5248765v.1477996ZM151.7217574,190.6637622c.002998-.3483366-.0363917-.6957447-.1172965-1.0345706-.0716424-.3081214-.1971229-.6011746-.3706647-.8656622-.1623778-.245323-.3801553-.4490369-.6357563-.5947021-.2822471-.1530684-.5998255-.229125-.9207912-.2205204-.3636396-.0126407-.7223684.0868694-1.0275321.2850348-.2754145.1887979-.5027899.4394725-.6639081.7319418v3.5811153c.1602904.2881245.3866099.534141.6603889.7178648.3116787.1966441.6757277.2939974,1.043956.2791709.3194935.0082287.6353805-.069121.914925-.2240397.2549746-.1477728.4715664-.3535159.6322393-.6005661.1712375-.2678413.2954069-.5629953.3671432-.8726984.0806318-.3400653.1200125-.6886055.1172965-1.0380899v-.1442781Z"/></g></g></symbol><symbol id="g" viewBox="0 0 45.5 45.5000139"><g id="h"><g id="i"><path id="j" class="aa" d="M42.6669216,40.8230896c.2560543.2495274.3813177.5599673.3813177.9223253,0,.3588849-.1252633.6719073-.3813177.9276685-.2523989.253891-.5614116.3835441-.9251656.3835441-.3601878,0-.6691039-.1296531-.9233825-.3835441-.250705-.2557611-.3796163-.5687836-.3796163-.9276685,0-.362358.1289113-.6727978.3796163-.9223253.2586398-.2601248.5658693-.3871148.9233825-.3871148.3628625,0,.6700103.12699.9251656.3871148ZM42.8205363,40.6723223c-.2984031-.2944993-.6559163-.440903-1.0787804-.440903-.4140377,0-.7732448.1464037-1.0663878.440903-.298314.2953899-.4431915.6533842-.4431915,1.0730925,0,.4188178.1430053.7785932.4379313,1.072202.2930538.298952.6541332.4471367,1.0716479.4471367.4228641,0,.7803772-.1481847,1.0787804-.4471367.2939454-.2953899.4449746-.6559754.4449746-1.072202,0-.4223799-.1510293-.7777027-.4449746-1.0730925ZM41.9677724,41.672213c-.0591175.0255583-.1536222.0370376-.2789747.0370376h-.2630902v-.6048415h.2507867c.162352,0,.2806612.0228867.3530554.0633973.0750688.042398.1111842.1235256.1111842.2433914,0,.1287711-.0564428.2133718-.1729615.2610153ZM41.1326463,42.5680895h.2930612v-.6541857h.2322424c.1536148,0,.2639.0157624.3265762.0545897.103242.061714.1562077.1895859.1562077.3809701v.1339362l.0053493.0503151c.0035662.0097068.0035662.0140704.0044578.0202151.0016865.0080148.0025781.0106864.0079274.0141595h.2718348l-.0097179-.0193246c-.0088189-.0123784-.013195-.0406083-.0140866-.0847788-.0034771-.0457734-.0034771-.0863817-.0034771-.1234279v-.1234279c0-.0846897-.0309369-.1692904-.0909385-.2583437-.0618738-.0890533-.1589641-.1410605-.2895767-.1640448.1041335-.0166444.1854432-.0449633.2409871-.0784474.1111768-.0705302.1632435-.1833694.1632435-.3297645,0-.2081176-.0829145-.3509591-.2576591-.4214894-.0962878-.0388272-.2472279-.0599415-.4546034-.0599415h-.5818282v1.6629904Z"/><g id="k"><path id="l" class="aa" d="M41.5137708,9.8847281l-.7972837-.5334131-.2824113-.912158C36.2631764,3.2915305,29.8914527,0,22.7499931,0,10.1858838,0,.0005971,10.1849326,0,22.74891v.0024577c.0002916,5.0463595,1.644703,9.7080906,4.4253026,13.4810315l1.0177259.6709913.3585496,1.0209919c4.1654424,4.6492619,10.2147864,7.5756315,16.948415,7.5756315,12.5644842,0,22.7500069-10.1855297,22.7500069-22.7500069,0-4.7751826-1.4723562-9.2058797-3.9862292-12.8652789Z"/><path id="m" class="z" d="M41.1679038,20.8171797c-2.1704567-2.3391309-5.8320845-4.3245217-13.3643933-4.7873879.3913421-1.2208481.7335989-2.3391309,1.0948233-3.481998,4.503117.158628,8.5110006.4828475,11.9233211.9257326.270198-1.2271035.4136838-2.4273733.6951221-3.5844591-.3429858-.499524-.7054252-.9845446-1.0861656-1.4542148-1.9395865-.3696404-3.2506308-.5983194-4.9976422-.8204666-2.3536898-.3037315-4.8174223-.520866-7.4793355-.6439332-1.6761329,4.992942-3.7715871,11.2753958-5.9211392,17.7679165,11.2048991.9696941,15.5139523,3.9888119,15.2717059,8.2478703-.2230845,2.3005917-2.326627,4.3930744-5.0925496,4.6402363-3.2902739.2211336-4.7964066-1.107827-5.7850543-2.5657978-.8706002-1.3098958-1.7392564-2.6218467-2.6668357-4.0518451-.2521815-.420335-.5844894-.1471586-.8846384.1460269-.6784595.6584852-1.323934,1.2808959-1.9944094,1.9233989-.4313045.3752488-.3352863.6975243-.1831151,1.0117046.6264097,1.4770286,1.2097813,2.8309901,1.7992001,4.1749123.9807677.6014089,5.5920042,1.4220004,9.0403854,1.1638759,2.3366662-.1961397,5.2586619-1.099829,7.6734063-2.9191214,2.3866748-1.8482923,4.1258271-4.3420452,4.3950253-8.2857778.1221438-2.4267415-.3261704-5.0410066-2.437711-7.4066727ZM14.7313724,36.42161c-.2061789-.4863328-.2421423-1.2118364-.286208-1.9283283-.2322003-4.748335-.3082373-9.8839227-.2281041-15.0385683,1.7311611-.0300274,3.450346-.0440656,5.2566068-.0650744.8756267-.3988194,1.6991897-.7935426,2.5728655-1.1838571,0-.623952.003999-1.1828296.003999-1.7922365-2.678923.0130177-5.2176649.0550282-7.7634815.1280938.072038-2.1669784.1570936-4.1669282.2842571-6.1182925.0920192-1.2819235.9786085-2.2190352,1.8942949-2.2926075,1.468017-.0570764,2.7859108.5258856,4.0618913,1.0927613.7034673.3412293,1.3968954.6800008,2.1174766,1.0492094.3442008.0931509.7524554.1716387.9986939-.1270662.4273055-.5058002.833505-.9761439,1.253847-1.46801.2271807-.3362236.1291143-.528871.0360676-.6529519-.9156864-.7230459-1.7772749-1.3730332-2.6488956-2.0264849-.5383895-.3657233-1.3879879-.4438084-2.2255822-.4438084-.3341685,0-.6694548.0120804-.9806567.0220293-.860672.0450932-1.9574254.183122-3.7506894.6199599-4.0407784,1.0872279-8.8922062,3.9062278-9.4045674,8.5124447-.066095.7520457-.1211232,1.497121-.1701043,2.2661695-1.140819.0960044-2.1795795.1786092-3.1602362.2726766-.072038.8810559-.1200957,1.727169-.1600582,2.6203123.9926468-.0579997,2.0283247-.1100565,3.1821614-.1601623-.1711249,4.830426-.0090186,9.6508059.4443222,14.1150019.0760301.6784665.1501162,1.3508719.062096,1.785266-.0722393.4146142-.7337377.633172-1.694309.6267152.4314156.5852184.890144,1.1489351,1.3744009,1.6894491,3.8734789.6958858,8.7055087,1.175623,13.7332825,1.3223025-.0170097-.5222962-.0319714-1.029735-.0440656-1.5680203-3.0911697-.1742075-4.5121356-.6454745-4.7593045-1.2569226Z"/></g></g></g></symbol></defs><use width="282" height="282" transform="translate(219 219)" xlink:href="#a"/><polygon class="t" points=".0000126 0 360.0000126 360 720.0000126 0 .0000126 0"/><polygon class="t" points="7.7781498 0 360.0000126 352.2218018 712.2218753 0 7.7781498 0"/><path class="w" d="M360.0000126,208c39.9321899,0,76.3098755,15.4862061,103.4633179,40.7584229l23.4551392-23.4550781c-34.4296265-32.4772949-79.2792969-50.3033447-126.918457-50.3033447-47.6390991,0-92.4886475,17.8260498-126.9182129,50.3031006l23.4551392,23.4552002c27.1534424-25.2720947,63.5310059-40.7583008,103.4630737-40.7583008Z"/><path class="z" d="M341.7355472,192.1112061l5.793457,6.7138672-3.8588867.4599609-3.6577148-4.2392578-2.6835938,4.9951172-3.6503906.4355469,4.0507812-8.0776367-5.8164062-6.7324219,3.8588867-.4599609,3.7299805,4.3154297,2.7988281-5.09375,3.7128906-.4428711-4.277832,8.1259766Z"/><path class="z" d="M347.9723636,193.9110107l-.1538086-5.1650391c-.0947266-3.1704102,2.34375-5.2607422,6.815918-5.394043,4.472168-.1328125,7.0307617,1.8081055,7.1254883,4.9785156l.1538086,5.1650391c.0942383,3.1704102-2.3442383,5.2607422-6.7954102,5.3930664-4.472168.1333008-7.0517578-1.8071289-7.1459961-4.9775391ZM358.6510746,193.3197021l-.1376953-4.6191406c-.0454102-1.5327148-1.2299805-2.4853516-3.7705078-2.409668-2.5615234.0761719-3.7075195,1.0981445-3.6621094,2.6308594l.1376953,4.6191406c.0458984,1.5327148,1.2299805,2.4853516,3.7915039,2.4086914,2.5615234-.0761719,3.6870117-1.097168,3.6411133-2.6298828Z"/><path class="z" d="M375.3937503,192.9447021l-.0908203,1.59375c-.199707,3.5219727-2.1210938,4.7587891-5.0351562,4.59375-1.1738281-.0668945-2.1884766-.355957-2.9760742-.9262695l-.2988281,5.262207-3.1450195-.1782227.8808594-15.5146484,2.0756836.1176758.5405273.8510742c.9038086-.7270508,2.1191406-1.015625,3.5654297-.9335938,2.9145508.1655273,4.6831055,1.6123047,4.4833984,5.1342773ZM372.2389652,192.93396c.0834961-1.4677734-.7983398-2.2329102-2.1611328-2.3100586-1.4257812-.0810547-2.3911133.621582-2.4765625,2.1308594l-.0620117,1.090332c-.0859375,1.5092773.8359375,2.3188477,2.2197266,2.3974609,1.362793.0776367,2.3256836-.5830078,2.4086914-2.0507812l.0712891-1.2578125Z"/><path class="z" d="M376.8439457,195.8768311l.0327148-.25,3.1240234.409668-.0327148.25c-.090332.6875.6884766,1.2133789,1.7504883,1.3525391.8955078.1176758,1.6005859-.0864258,1.6660156-.5864258.2104492-1.6040039-6.4975586-1.0214844-5.9702148-5.0415039.2866211-2.1870117,2.4414062-3.4296875,5.2114258-3.0664062,2.7910156.3657227,4.4453125,2.1293945,4.1748047,4.1914062l-.0273438.2080078-3.1240234-.409668.0273438-.2080078c.0791016-.6040039-.5356445-1.0874023-1.4311523-1.2045898-.9580078-.1254883-1.6196289.2324219-1.6767578.6699219-.1831055,1.3955078,6.5136719.8964844,5.9731445,5.0205078-.3251953,2.4785156-2.8291016,3.3154297-5.3491211,2.9848633-2.9370117-.3852539-4.6274414-2.1958008-4.3486328-4.3203125Z"/><polygon class="t" points="0 720 360 360 0 0 0 720"/><polygon class="t" points="0 712.2218628 352.2218018 360 0 7.7781372 0 712.2218628"/><path class="y" d="M208.0000126,360.0001119c0-39.932251,15.4863892-76.3100586,40.758606-103.463501l-23.4560547-23.4560547c-67.0609741,71.1033936-67.0610352,182.7352295-.0001831,253.8387451l23.4559937-23.4559326c-25.2721558-27.1534424-40.7583618-63.5311279-40.7583618-103.4632568Z"/><path class="z" d="M191.0626957,388.8660787l4.4394531-.9360352c3.1040039-.6542969,5.5927734,1.3754883,6.4462891,5.4248047l1.3867188,6.5771484-14.5927734,3.0766602-1.3828125-6.5566406c-.8579102-4.0698242.5996094-6.9316406,3.703125-7.5859375ZM192.0016605,391.9954733c-1.5004883.3164062-2.2280273,1.6503906-1.8120117,3.6235352l.7583008,3.597168,8.8378906-1.8632812-.7539062-3.5766602c-.4204102-1.9936523-1.6245117-2.9204102-3.125-2.6040039l-3.9052734.8232422Z"/><path class="z" d="M192.2931644,375.7391256l2.3969727-.2983398.902832,7.253418c1.5478516-.3198242,2.0849609-1.2753906,1.9345703-2.484375-.1064453-.8544922-.7158203-1.8369141-1.2783203-1.7670898l-.1459961.0180664-.3891602-3.1264648c2.2509766-.2802734,3.9487305,1.625,4.3198242,4.605957.4174805,3.355957-1.3603516,5.5664062-4.3828125,5.9428711l-1.2714844.1582031c-3.0224609.3759766-5.1811523-1.3237305-5.5986328-4.6796875-.3657227-2.9389648,1.2402344-5.3398438,3.512207-5.6225586ZM192.7970707,378.935903c-1.1621094.1870117-1.6782227.8012695-1.5175781,2.09375.1557617,1.2504883.8666992,1.8608398,2.015625,1.9082031l-.4980469-4.0019531Z"/><path class="z" d="M182.6452152,370.8157858l16.1318359-1.1162109.2172852,3.1425781-16.1318359,1.1162109-.2172852-3.1425781Z"/><path class="z" d="M183.7550785,367.7860006l-.1098633-3.1469727,3.0634766-.1069336.1098633,3.1469727-3.0634766.1069336ZM187.9513675,367.6395162l-.1098633-3.1469727,10.7001953-.3735352.1098633,3.1469727-10.7001953.3735352Z"/><path class="z" d="M187.9127933,351.4437155l10.6494141,3.5458984-.0751953,4.2832031-10.7666016,3.1728516.0576172-3.296875,7.4941406-2.1791992-7.4169922-2.2299805.0576172-3.2958984Z"/><path class="z" d="M192.7570316,339.9339498l2.4057617.2104492-.637207,7.2802734c1.5800781.0117188,2.3051758-.8100586,2.4116211-2.0234375.0751953-.8579102-.3144531-1.9458008-.8793945-1.9951172l-.1464844-.0131836.2749023-3.1376953c2.2592773.1977539,3.5195312,2.4160156,3.2578125,5.4072266-.2949219,3.3681641-2.4960938,5.1572266-5.5297852,4.8916016l-1.2758789-.1118164c-3.0336914-.2651367-4.7875977-2.3793945-4.4931641-5.7475586.2583008-2.949707,2.331543-4.9604492,4.6118164-4.7607422ZM192.5797855,343.1649069c-1.175293-.0610352-1.8085938.4316406-1.9223633,1.7290039-.1098633,1.2548828.4575195,2,1.5708008,2.2875977l.3515625-4.0166016Z"/><path class="z" d="M190.0880863,330.2816061l2.699707.4082031c-.1875.3964844-.3398438.8408203-.4057617,1.2768555-.1728516,1.1425781.2241211,2.3071289,1.96875,2.5712891l6.0019531.9082031-.4716797,3.1152344-10.5913086-1.6030273.3110352-2.0561523,1.0351562-.5229492c-.6508789-1.0332031-.8388672-2.3149414-.6538086-3.5405273.0283203-.1865234.0566406-.3735352.105957-.5571289Z"/><path class="z" d="M192.8874027,317.951528l11.2382812,2.4667969c2.2148438.4863281,3.9208984,2.4086914,3.128418,6.0180664-.7919922,3.609375-3.128418,4.5581055-5.097168,4.1259766l.675293-3.0761719c.7587891.1665039,1.4101562-.550293,1.6401367-1.5961914.2382812-1.0869141-.0375977-2.1791992-1.1860352-2.4311523l-1.0048828-.2207031c.3095703.8417969.3413086,1.7729492.1254883,2.7573242-.5673828,2.5839844-2.378418,4.078125-6.1313477,3.2543945l-5.5986328-1.2290039.675293-3.0761719,5.6396484,1.2382812c1.5791016.3461914,2.5087891-.2661133,2.7700195-1.4555664.2114258-.9638672-.3310547-2.1152344-1.7871094-2.4345703l-5.7626953-1.2651367.675293-3.0761719Z"/><polygon class="t" points="720 0 360 360 720 720 720 0"/><polygon class="t" points="720 7.7781372 367.7781982 360 719.9999999 712.2218628 720 7.7781372"/><path class="ab" d="M494.6976444,233.0806783l-23.4559937,23.4560547c25.2721558,27.1534424,40.7583618,63.5310059,40.7583618,103.4632568,0,39.9321289-15.4862061,76.3096924-40.7582397,103.4631348l23.4560547,23.4560547c67.0606079-71.1035156,67.0605469-182.7351074-.0001831-253.838501Z"/><path class="z" d="M520.8170902,317.022817l.4711914-.1054688.7119141,3.1762695-.5737305.128418c-1.1679688.262207-1.6362305,2.1103516-1.2089844,4.0161133.3076172,1.3730469,1.1621094,2.8818359,2.4736328,2.5878906,2.828125-.6342773-1.6938477-9.4775391,3.9418945-10.7407227,2.2539062-.5053711,4.8051758.6015625,5.8017578,5.0488281.9692383,4.3237305-.6123047,6.6796875-3.2963867,7.28125l-.5126953.1147461-.7119141-3.1762695.5126953-.1147461c1.0449219-.234375,1.5205078-1.7612305,1.1254883-3.5234375-.3442383-1.5371094-1.1777344-2.6630859-2.2026367-2.4335938-2.1923828.4916992,1.6118164,9.4960938-3.9008789,10.7314453-2.5615234.5742188-5.190918-1.074707-6.1230469-5.2348633-.9370117-4.1806641.6225586-7.112793,3.4916992-7.7558594Z"/><path class="z" d="M527.4635746,341.8817037l-2.3916016.331543-1.0039062-7.2373047c-1.5424805.3408203-2.065918,1.3037109-1.8989258,2.5102539.1186523.8525391.7412109,1.8261719,1.3027344,1.7485352l.1455078-.0205078.4326172,3.1196289c-2.2460938.3115234-3.9697266-1.5693359-4.3823242-4.543457-.4643555-3.3481445,1.2822266-5.5830078,4.2978516-6.0009766l1.2685547-.1762695c3.015625-.4179688,5.1972656,1.2509766,5.6616211,4.5991211.4067383,2.9326172-1.1650391,5.3549805-3.4321289,5.6694336ZM526.9152347,338.6932272c1.1591797-.203125,1.6665039-.8242188,1.487793-2.1137695-.1733398-1.2480469-.8920898-1.8476562-2.0415039-1.8793945l.5537109,3.9931641Z"/><path class="z" d="M525.4884769,344.0711569l1.3823242-.0878906c3.0380859-.1923828,5.0888672,1.6337891,5.3027344,5.0068359.1962891,3.1005859-1.5605469,5.2524414-4.3676758,5.4301758l-.0629883.0039062-.2001953-3.1635742.0625-.0039062c1.1523438-.0727539,1.8168945-.8720703,1.7412109-2.0664062-.0957031-1.5083008-.956543-2.1479492-2.4438477-2.0537109l-1.0473633.0664062c-1.487793.0942383-2.262207.8164062-2.1665039,2.324707.0756836,1.1943359.8369141,1.9243164,1.9892578,1.8510742l.0629883-.0039062.2001953,3.1635742-.0625.0039062c-2.8076172.1777344-4.8217773-1.7348633-5.0170898-4.8144531-.2138672-3.3730469,1.5888672-5.4643555,4.6269531-5.6567383Z"/><path class="z" d="M532.118848,367.0013326l-10.7080078-.1713867.0332031-2.0786133.8066406-.5541992c-.7426758-.8310547-1.081543-1.9492188-1.0620117-3.1879883.0424805-2.6455078,1.5205078-4.4702148,5.362793-4.4086914l5.7319336.0917969-.050293,3.1494141-5.7739258-.0922852c-1.6166992-.0258789-2.40625.7592773-2.4257812,1.9770508-.015625.9868164.7451172,2.0073242,2.2358398,2.0307617l5.8999023.0947266-.050293,3.1494141Z"/><path class="z" d="M531.6520511,376.722524l-2.7216797-.2045898c.1572266-.4091797.2753906-.8632812.3085938-1.3032227.0864258-1.1513672-.3969727-2.2822266-2.1557617-2.4145508l-6.050293-.4541016.2358398-3.1401367,10.6767578.8017578-.1552734,2.0722656-.9926758.5991211c.7265625.980957,1.0107422,2.2446289.9179688,3.4794922-.0141602.1884766-.0283203.3769531-.0634766.5639648Z"/><path class="z" d="M531.1959964,378.8743795l-.3710938,3.1289062-10.6376953-1.2607422.3706055-3.1289062,10.6381836,1.2607422ZM535.3673832,379.3685201l-.3706055,3.1289062-3.0454102-.3608398.3706055-3.1289062,3.0454102.3608398Z"/><path class="z" d="M521.6076175,390.19811l-2.7973633-.4555664.2626953-1.6162109c.465332-2.859375,2.2587891-4.2055664,5.0146484-3.7568359l3.480957.5664062.2363281-1.4506836,2.7973633.4555664-.2363281,1.4501953,2.9633789.4824219-.5058594,3.1083984-2.9633789-.4824219-.4482422,2.7558594-2.7973633-.4550781.4482422-2.7558594-2.8803711-.46875c-1.3466797-.2192383-2.1972656.3017578-2.3896484,1.4829102l-.1850586,1.1396484Z"/><path class="z" d="M526.6916019,403.69811l-11.2133789-2.5751953c-2.2099609-.5078125-3.8969727-2.4462891-3.0698242-6.0478516.8271484-3.6010742,3.1723633-4.5273438,5.1367188-4.0761719l-.7050781,3.0693359c-.7568359-.1738281-1.4155273.5366211-1.6552734,1.5800781-.2490234,1.0844727.0161133,2.1796875,1.1621094,2.4428711l1.0029297.2299805c-.3017578-.8447266-.324707-1.7763672-.0991211-2.7583008.5922852-2.578125,2.4174805-4.0546875,6.1621094-3.1943359l5.5864258,1.2827148-.7050781,3.0693359-5.6269531-1.2924805c-1.5756836-.3618164-2.5112305.2416992-2.7841797,1.4287109-.2207031.9619141.3110352,2.1176758,1.7636719,2.4516602l5.75,1.3203125-.7050781,3.0693359Z"/><polygon class="t" points="720.0000125 720 360.0000126 360 .0000125 720 720.0000125 720"/><polygon class="t" points="712.2218753 720 360.0000126 367.7781982 7.7781497 719.9999999 712.2218753 720"/><path class="v" d="M360.0000126,511.9999899c-39.9321899,0-76.3098755-15.4862061-103.4633179-40.7583008l-23.4551392,23.4552002c34.4296265,32.4771729,79.2792969,50.3031006,126.918457,50.3031006,47.6392822,0,92.4890137-17.8260498,126.9186401-50.3033447l-23.4552002-23.4552002c-27.1534424,25.2722168-63.531189,40.7585449-103.4634399,40.7585449Z"/><path class="z" d="M313.6159183,517.7816061l-1.456543,4.2949219c-1.0185547,3.0019531-4.0317383,4.1079102-7.9487305,2.7792969l-6.3623047-2.1582031,4.7885742-14.1162109,6.3422852,2.1513672c3.9365234,1.3354492,5.6552734,4.046875,4.6367188,7.0488281ZM310.4464847,516.994985c.4926758-1.4516602-.2841797-2.7568359-2.1928711-3.4042969l-3.4794922-1.1801758-2.8999023,8.5493164,3.4594727,1.1733398c1.9287109.6542969,3.3393555.0908203,3.831543-1.3608398l1.28125-3.7773438Z"/><path class="z" d="M324.8800785,523.5389303l-.5791016,2.3442383-7.0942383-1.7519531c-.2553711,1.559082.4448242,2.4023438,1.6269531,2.6943359.8359375.206543,1.9711914-.0102539,2.1069336-.5610352l.0351562-.1425781,3.0581055.7553711c-.5439453,2.2016602-2.9296875,3.1044922-5.8452148,2.3847656-3.2817383-.8110352-4.7099609-3.2617188-3.9794922-6.2172852l.3071289-1.2436523c.7299805-2.9560547,3.0893555-4.3632812,6.3710938-3.5527344,2.8745117.7099609,4.5415039,3.0683594,3.9926758,5.2905273ZM321.7155277,522.8655905c.2412109-1.1518555-.1479492-1.8535156-1.4116211-2.1655273-1.2231445-.3022461-2.0473633.1430664-2.5024414,1.1987305l3.9140625.9667969Z"/><path class="z" d="M337.9162113,526.5008444l-.262207,1.5751953c-.5791016,3.480957-2.6230469,4.5039062-5.503418,4.0244141-1.1606445-.1933594-2.1381836-.5898438-2.8598633-1.2426758l-.8657227,5.2011719-3.1079102-.5170898,2.5517578-15.3339844,2.0512695.3413086.4458008.9047852c.9770508-.6254883,2.2167969-.78125,3.6464844-.5429688,2.8803711.4790039,4.4833984,2.1088867,3.9038086,5.5898438ZM334.7804691,526.1497701c.2416992-1.4506836-.5532227-2.3071289-1.8999023-2.53125-1.4091797-.234375-2.4448242.3598633-2.6933594,1.8515625l-.1791992,1.0776367c-.2485352,1.4921875.5805664,2.3964844,1.9482422,2.6240234,1.347168.2241211,2.3759766-.3286133,2.6171875-1.7788086l.2070312-1.2431641Z"/><path class="z" d="M344.5143558,517.088735l-1.7275391,16.0727539-3.1308594-.3364258,1.7270508-16.0727539,3.1313477.3364258Z"/><path class="z" d="M345.696973,528.8255514l.0712891-1.3837891c.1572266-3.0400391,2.206543-4.8681641,5.6660156-4.6894531s5.3305664,2.2094727,5.1733398,5.2495117l-.0712891,1.3837891c-.1572266,3.0400391-2.206543,4.8681641-5.6660156,4.6894531s-5.3305664-2.2094727-5.1733398-5.2495117ZM353.400098,529.0555319l.0541992-1.0483398c.0766602-1.4887695-.5517578-2.3408203-2.1450195-2.4233398-1.59375-.0825195-2.3276367.699707-2.4047852,2.1879883l-.0541992,1.0483398c-.0766602,1.4887695.5517578,2.3408203,2.1455078,2.4233398,1.5932617.0825195,2.3271484-.699707,2.4042969-2.1879883Z"/><path class="z" d="M369.0739261,523.113149l.2758789,11.5058594c.0546875,2.2675781-1.4072266,4.3823242-5.1025391,4.4711914-3.6953125.0883789-5.1728516-1.9560547-5.2211914-3.9716797l3.1494141-.0756836c.0185547.7768555.8696289,1.2397461,1.9404297,1.2143555,1.112793-.0268555,2.1088867-.5551758,2.0805664-1.730957l-.0249023-1.0288086c-.7441406.5014648-1.6416016.7539062-2.6494141.777832-2.6455078.0634766-4.527832-1.3408203-4.6196289-5.1831055l-.1376953-5.7319336,3.1494141-.0756836.1386719,5.7739258c.0385742,1.6166992.8549805,2.3745117,2.0727539,2.3452148.9868164-.0234375,1.9760742-.824707,1.9404297-2.3154297l-.1416016-5.8999023,3.1494141-.0751953Z"/><path class="z" d="M388.6295902,526.0555319l.6835938,5.6904297-3.1269531.3754883-.7128906-5.9404297c-.175293-1.4589844-1.1357422-2.0625-2.0112305-1.9575195-.8964844.1074219-1.7285156.9262695-1.5229492,2.6352539l.6831055,5.6904297-3.1264648.3754883-.7133789-5.9404297c-.175293-1.4589844-1.1357422-2.0625-2.0112305-1.9575195-.8959961.1074219-1.7231445.9682617-1.5429688,2.46875l.703125,5.8569336-3.1264648.3754883-1.2763672-10.6303711,2.0634766-.2475586.6347656.7060547c.7016602-.8452148,1.6621094-1.2988281,2.6625977-1.4189453,1.5424805-.1855469,2.8066406.1279297,3.6821289,1.0800781.6904297-1.1186523,1.8417969-1.7431641,3.0087891-1.8833008,2.7724609-.3330078,4.5913086.9077148,5.0493164,4.7216797Z"/><path class="z" d="M400.9845707,522.1732076l.515625,2.3598633-7.1420898,1.5610352c.4599609,1.5126953,1.4609375,1.9604492,2.6513672,1.7001953.8413086-.184082,1.7641602-.8803711,1.6430664-1.4345703l-.03125-.1435547,3.078125-.6728516c.4848633,2.2163086-1.2578125,4.0810547-4.1928711,4.7226562-3.3041992.722168-5.668457-.8466797-6.3188477-3.8227539l-.2739258-1.2519531c-.6503906-2.9755859.8457031-5.28125,4.1499023-6.003418,2.8935547-.6323242,5.4316406.7480469,5.9208984,2.9853516ZM397.8463871,522.9666647c-.2924805-1.140625-.9516602-1.5986328-2.2241211-1.3203125-1.2314453.269043-1.7739258,1.0327148-1.7163086,2.1816406l3.9404297-.8613281Z"/><path class="z" d="M413.9059574,519.535024l1.6582031,5.4902344-3.0166016.9111328-1.6704102-5.5307617c-.4736328-1.5683594-1.7177734-1.9829102-2.7636719-1.6669922s-1.953125,1.3798828-1.5161133,2.828125l1.706543,5.6508789-3.0166016.9111328-3.097168-10.2568359,1.9907227-.6010742.8325195.6484375c.6538086-1.03125,1.7314453-1.7519531,3.0385742-2.1464844,2.5742188-.7773438,4.7426758.0820312,5.8540039,3.762207Z"/><path class="z" d="M423.700391,518.9593405l.9990234,2.652832-1.5327148.5776367c-2.7124023,1.0209961-4.7734375.1367188-5.7573242-2.4775391l-1.2436523-3.3017578-1.3754883.5180664-.9990234-2.652832,1.3754883-.5180664-1.0581055-2.8105469,2.9477539-1.1103516,1.0585938,2.8105469,2.6137695-.984375.9990234,2.6533203-2.6137695.984375,1.0288086,2.7319336c.480957,1.2773438,1.3564453,1.7553711,2.4765625,1.3334961l1.0810547-.4067383Z"/></svg>